<svg width="50" height="50" viewBox="0 0 50 50" fill="#B9C050" xmlns="http://www.w3.org/2000/svg">
<path d="M25 0C11.1544 0 0 11.1544 0 25C0 38.8456 11.1544 50 25 50C38.8456 50 50 38.8456 50 25C50 11.1544 38.8456 0 25 0ZM25 45.8231C13.5176 45.8231 4.17692 36.4264 4.17692 25C4.17692 13.5709 13.5176 4.17692 25 4.17692C36.4824 4.17692 45.8231 13.5176 45.8231 25C45.8231 36.4824 36.4824 45.8231 25 45.8231V45.8231Z" />
<path id="test" d="M36.4826 23.1862L19.7804 13.4615C19.1751 13.131 18.2973 13.131 17.692 13.4615C17.0867 13.792 16.6489 14.5046 16.6489 15.2751V34.7246C16.6489 35.4929 17.0889 36.2077 17.692 36.5382C18.0225 36.7571 18.4067 36.813 18.7351 36.813C19.0656 36.813 19.4498 36.7571 19.7782 36.5382L36.4271 26.8135C37.0323 26.483 37.4701 25.7704 37.4701 24.9999C37.4723 24.2315 37.0881 23.5168 36.4828 23.1862H36.4826Z" />
</svg>
